<svg xmlns:xlink="http://www.w3.org/1999/xlink" width="15" height="15" viewBox="0 0 15 15" fill="none" xmlns="http://www.w3.org/2000/svg">
                      <path fill-rule="evenodd" clip-rule="evenodd" d="M5.59755 14.4404C5.72198 14.4668 5.84721 14.4799 5.97154 14.4799C6.37527 14.4799 6.76889 14.3424 7.08998 14.0826C7.50985 13.7427 7.75066 13.238 7.75066 12.6978V11.9631C7.75066 11.4341 8.18101 11.0038 8.70997 11.0038H10.6753C11.5742 11.0038 12.4229 10.6577 13.0652 10.0293C13.7108 9.39764 14.0718 8.55469 14.0816 7.65577C14.082 7.61794 14.0821 7.58009 14.082 7.54221C14.0629 3.68982 10.9166 0.561035 7.06534 0.561035L7.05117 0.561063C5.17995 0.564818 3.42133 1.29633 2.09927 2.62085C0.777022 3.94559 0.0488281 5.70597 0.0488281 7.57768C0.0488281 9.19411 0.611884 10.7719 1.63428 12.0205C2.64226 13.2514 4.04978 14.1108 5.59755 14.4404ZM7.05391 1.93049H7.06534C10.1642 1.93049 12.6962 4.44828 12.7116 7.54809C12.7117 7.5787 12.7116 7.60924 12.7113 7.63972V7.63977C12.6993 8.73847 11.786 9.63232 10.6753 9.63232H8.70997C7.42535 9.63232 6.38023 10.6774 6.38023 11.9621V12.6968C6.38023 12.8674 6.28468 12.9702 6.22773 13.0163C6.17072 13.0625 6.05023 13.1347 5.88298 13.099C3.29654 12.5482 1.41926 10.2257 1.41926 7.5767C1.41926 4.4696 3.94697 1.93671 7.05391 1.93049ZM3.33726 8.39902C2.88387 8.39902 2.515 8.03015 2.515 7.57676C2.515 7.12337 2.88387 6.7545 3.33726 6.7545C3.79066 6.7545 4.15952 7.12337 4.15952 7.57676C4.15952 8.03015 3.79066 8.39902 3.33726 8.39902ZM6.24258 3.84918C6.24258 4.30257 6.61145 4.67144 7.06484 4.67144C7.51823 4.67144 7.8871 4.30257 7.8871 3.84918C7.8871 3.39579 7.51823 3.02692 7.06484 3.02692C6.61145 3.02692 6.24258 3.39579 6.24258 3.84918ZM9.69999 5.76363C9.24659 5.76363 8.87773 5.39476 8.87773 4.94137C8.87773 4.48797 9.24659 4.11911 9.69999 4.11911C10.1534 4.11911 10.5222 4.48797 10.5222 4.94137C10.5222 5.39476 10.1534 5.76363 9.69999 5.76363ZM3.60743 4.94137C3.60743 5.39476 3.9763 5.76363 4.42969 5.76363C4.88309 5.76363 5.25195 5.39476 5.25195 4.94137C5.25195 4.48797 4.88309 4.11911 4.42969 4.11911C3.9763 4.11911 3.60743 4.48797 3.60743 4.94137Z" fill="#374957"></path>
                    </svg>